<?xml version="1.0" encoding="UTF-8" standalone="no"?>
<!DOCTYPE svg PUBLIC "-//W3C//DTD SVG 1.1//EN"
 "http://www.w3.org/Graphics/SVG/1.1/DTD/svg11.dtd">
<!-- Generated by graphviz version 2.34.0 (20130907.0228)
 -->
<!-- Title: G Pages: 1 -->
<svg width="723pt" height="404pt"
 viewBox="0.00 0.00 723.00 404.00" xmlns="http://www.w3.org/2000/svg" xmlns:xlink="http://www.w3.org/1999/xlink">
<g id="graph0" class="graph" transform="scale(1 1) rotate(0) translate(4 400)">
<title>G</title>
<polygon fill="white" stroke="white" points="-4,4 -4,-400 719,-400 719,4 -4,4"/>
<!-- prune second levels -->
<g id="node1" class="node"><title>prune second levels</title>
<ellipse fill="none" stroke="black" cx="539" cy="-234" rx="82.3139" ry="18"/>
<text text-anchor="middle" x="539" y="-230.3" font-family="Times,serif" font-size="14.00">prune second levels</text>
</g>
<!-- centralities -->
<g id="node4" class="node"><title>centralities</title>
<ellipse fill="none" stroke="black" cx="337" cy="-162" rx="50.5427" ry="18"/>
<text text-anchor="middle" x="337" y="-158.3" font-family="Times,serif" font-size="14.00">centralities</text>
</g>
<!-- prune second levels&#45;&gt;centralities -->
<g id="edge1" class="edge"><title>prune second levels&#45;&gt;centralities</title>
<path fill="none" stroke="black" d="M497.145,-218.496C463.383,-206.796 416.007,-190.379 381.547,-178.437"/>
<polygon fill="black" stroke="black" points="382.34,-175.008 371.745,-175.04 380.048,-181.622 382.34,-175.008"/>
</g>
<!-- rankings by cip4 -->
<g id="node2" class="node"><title>rankings by cip4</title>
<ellipse fill="none" stroke="black" cx="159" cy="-90" rx="71.2405" ry="18"/>
<text text-anchor="middle" x="159" y="-86.3" font-family="Times,serif" font-size="14.00">rankings by cip4</text>
</g>
<!-- rankings by cip2 -->
<g id="node10" class="node"><title>rankings by cip2</title>
<ellipse fill="none" stroke="black" cx="208" cy="-18" rx="71.2405" ry="18"/>
<text text-anchor="middle" x="208" y="-14.3" font-family="Times,serif" font-size="14.00">rankings by cip2</text>
</g>
<!-- rankings by cip4&#45;&gt;rankings by cip2 -->
<g id="edge2" class="edge"><title>rankings by cip4&#45;&gt;rankings by cip2</title>
<path fill="none" stroke="black" d="M170.862,-72.055C176.7,-63.7147 183.856,-53.4908 190.324,-44.2517"/>
<polygon fill="black" stroke="black" points="193.38,-45.9885 196.248,-35.789 187.646,-41.9742 193.38,-45.9885"/>
</g>
<!-- cip crosswalk -->
<g id="node3" class="node"><title>cip crosswalk</title>
<ellipse fill="none" stroke="black" cx="60" cy="-162" rx="60.1672" ry="18"/>
<text text-anchor="middle" x="60" y="-158.3" font-family="Times,serif" font-size="14.00">cip crosswalk</text>
</g>
<!-- cip crosswalk&#45;&gt;rankings by cip4 -->
<g id="edge4" class="edge"><title>cip crosswalk&#45;&gt;rankings by cip4</title>
<path fill="none" stroke="black" d="M82.4646,-145.116C95.9131,-135.607 113.202,-123.382 127.944,-112.959"/>
<polygon fill="black" stroke="black" points="130.137,-115.695 136.282,-107.064 126.096,-109.979 130.137,-115.695"/>
</g>
<!-- cip crosswalk&#45;&gt;rankings by cip2 -->
<g id="edge3" class="edge"><title>cip crosswalk&#45;&gt;rankings by cip2</title>
<path fill="none" stroke="black" d="M59.1615,-143.903C59.1222,-124.337 61.9889,-92.3756 79,-72 95.0895,-52.7283 119.308,-40.3732 142.431,-32.4934"/>
<polygon fill="black" stroke="black" points="143.771,-35.7403 152.247,-29.3832 141.656,-29.0673 143.771,-35.7403"/>
</g>
<!-- centralities&#45;&gt;rankings by cip4 -->
<g id="edge6" class="edge"><title>centralities&#45;&gt;rankings by cip4</title>
<path fill="none" stroke="black" d="M304.352,-148.161C276.519,-137.216 236.196,-121.358 205.078,-109.121"/>
<polygon fill="black" stroke="black" points="206.327,-105.851 195.74,-105.448 203.765,-112.365 206.327,-105.851"/>
</g>
<!-- centralities&#45;&gt;rankings by cip2 -->
<g id="edge5" class="edge"><title>centralities&#45;&gt;rankings by cip2</title>
<path fill="none" stroke="black" d="M326.618,-144.311C314.634,-125.686 293.765,-95.1317 272,-72 261.738,-61.0936 249.275,-50.3177 238.084,-41.3598"/>
<polygon fill="black" stroke="black" points="240.237,-38.6008 230.209,-35.1825 235.917,-44.1084 240.237,-38.6008"/>
</g>
<!-- stripped major graph -->
<g id="node5" class="node"><title>stripped major graph</title>
<ellipse fill="none" stroke="black" cx="352" cy="-234" rx="86.1637" ry="18"/>
<text text-anchor="middle" x="352" y="-230.3" font-family="Times,serif" font-size="14.00">stripped major graph</text>
</g>
<!-- stripped major graph&#45;&gt;centralities -->
<g id="edge7" class="edge"><title>stripped major graph&#45;&gt;centralities</title>
<path fill="none" stroke="black" d="M348.292,-215.697C346.639,-207.983 344.653,-198.712 342.81,-190.112"/>
<polygon fill="black" stroke="black" points="346.183,-189.149 340.665,-180.104 339.338,-190.616 346.183,-189.149"/>
</g>
<!-- major relations -->
<g id="node6" class="node"><title>major relations</title>
<ellipse fill="none" stroke="black" cx="407" cy="-378" rx="65.4659" ry="18"/>
<text text-anchor="middle" x="407" y="-374.3" font-family="Times,serif" font-size="14.00">major relations</text>
</g>
<!-- major relations&#45;&gt;cip crosswalk -->
<g id="edge10" class="edge"><title>major relations&#45;&gt;cip crosswalk</title>
<path fill="none" stroke="black" d="M345.948,-371.561C270.814,-361.457 144.879,-332.798 77,-252 62.6568,-234.927 58.9855,-209.474 58.5653,-190.156"/>
<polygon fill="black" stroke="black" points="62.0652,-190.165 58.6192,-180.147 55.0653,-190.128 62.0652,-190.165"/>
</g>
<!-- major relations&#45;&gt;stripped major graph -->
<g id="edge8" class="edge"><title>major relations&#45;&gt;stripped major graph</title>
<path fill="none" stroke="black" d="M393.193,-360.321C385.59,-350.344 376.59,-337.094 371,-324 362.587,-304.293 357.755,-280.488 355.072,-262.458"/>
<polygon fill="black" stroke="black" points="358.51,-261.764 353.697,-252.326 351.573,-262.705 358.51,-261.764"/>
</g>
<!-- recommendations -->
<g id="node8" class="node"><title>recommendations</title>
<ellipse fill="none" stroke="black" cx="640" cy="-306" rx="75.0904" ry="18"/>
<text text-anchor="middle" x="640" y="-302.3" font-family="Times,serif" font-size="14.00">recommendations</text>
</g>
<!-- major relations&#45;&gt;recommendations -->
<g id="edge11" class="edge"><title>major relations&#45;&gt;recommendations</title>
<path fill="none" stroke="black" d="M449.465,-364.242C487.622,-352.779 543.87,-335.88 585.367,-323.413"/>
<polygon fill="black" stroke="black" points="586.476,-326.735 595.046,-320.505 584.462,-320.031 586.476,-326.735"/>
</g>
<!-- second level majors -->
<g id="node9" class="node"><title>second level majors</title>
<ellipse fill="none" stroke="black" cx="463" cy="-306" rx="83.2892" ry="18"/>
<text text-anchor="middle" x="463" y="-302.3" font-family="Times,serif" font-size="14.00">second level majors</text>
</g>
<!-- major relations&#45;&gt;second level majors -->
<g id="edge9" class="edge"><title>major relations&#45;&gt;second level majors</title>
<path fill="none" stroke="black" d="M420.556,-360.055C427.366,-351.543 435.745,-341.068 443.255,-331.681"/>
<polygon fill="black" stroke="black" points="446.055,-333.784 449.569,-323.789 440.589,-329.411 446.055,-333.784"/>
</g>
<!-- schools and majors -->
<g id="node7" class="node"><title>schools and majors</title>
<ellipse fill="none" stroke="black" cx="167" cy="-234" rx="80.389" ry="18"/>
<text text-anchor="middle" x="167" y="-230.3" font-family="Times,serif" font-size="14.00">schools and majors</text>
</g>
<!-- schools and majors&#45;&gt;rankings by cip4 -->
<g id="edge14" class="edge"><title>schools and majors&#45;&gt;rankings by cip4</title>
<path fill="none" stroke="black" d="M166.035,-215.871C164.672,-191.67 162.167,-147.211 160.543,-118.393"/>
<polygon fill="black" stroke="black" points="164.025,-117.977 159.968,-108.189 157.037,-118.37 164.025,-117.977"/>
</g>
<!-- schools and majors&#45;&gt;centralities -->
<g id="edge12" class="edge"><title>schools and majors&#45;&gt;centralities</title>
<path fill="none" stroke="black" d="M203.887,-217.811C230.967,-206.661 267.761,-191.51 295.803,-179.964"/>
<polygon fill="black" stroke="black" points="297.412,-183.086 305.326,-176.042 294.747,-176.613 297.412,-183.086"/>
</g>
<!-- schools and majors&#45;&gt;rankings by cip2 -->
<g id="edge13" class="edge"><title>schools and majors&#45;&gt;rankings by cip2</title>
<path fill="none" stroke="black" d="M180.663,-216.093C198.19,-193.205 227.678,-150.339 239,-108 243.133,-92.5431 243.185,-87.4431 239,-72 236.42,-62.4797 231.655,-52.9174 226.622,-44.5872"/>
<polygon fill="black" stroke="black" points="229.506,-42.6006 221.146,-36.092 223.622,-46.3933 229.506,-42.6006"/>
</g>
<!-- second level majors&#45;&gt;prune second levels -->
<g id="edge15" class="edge"><title>second level majors&#45;&gt;prune second levels</title>
<path fill="none" stroke="black" d="M481.011,-288.411C490.689,-279.497 502.786,-268.355 513.423,-258.558"/>
<polygon fill="black" stroke="black" points="515.871,-261.062 520.855,-251.713 511.128,-255.913 515.871,-261.062"/>
</g>
</g>
</svg>
